<?xml version="1.0" encoding="UTF-8"?>
<svg xmlns="http://www.w3.org/2000/svg" xmlns:xlink="http://www.w3.org/1999/xlink" width="20" height="20" viewBox="0 0 20 20" version="1.1">
<g id="surface1">
<path style=" stroke:none;fill-rule:nonzero;fill:rgb(91.764706%,92.941176%,92.941176%);fill-opacity:1;" d="M 2.5 0 L 17.5 0 C 18.191406 0 18.75 0.558594 18.75 1.25 L 18.75 18.75 C 18.75 19.441406 18.191406 20 17.5 20 L 2.5 20 C 1.808594 20 1.25 19.441406 1.25 18.75 L 1.25 1.25 C 1.25 0.558594 1.808594 0 2.5 0 Z M 2.5 0 "/>
<path style=" stroke:none;fill-rule:nonzero;fill:rgb(82.745098%,83.921569%,84.705882%);fill-opacity:1;" d="M 3.125 1.875 L 16.875 1.875 L 16.875 6.25 L 3.125 6.25 Z M 3.125 1.875 "/>
<path style=" stroke:none;fill-rule:nonzero;fill:rgb(71.764706%,73.333333%,74.117647%);fill-opacity:1;" d="M 13.125 3.125 L 13.125 5 L 15.625 5 L 15.625 3.125 Z M 15 4.375 L 13.75 4.375 L 13.75 3.75 L 15 3.75 Z M 15 4.375 "/>
<path style=" stroke:none;fill-rule:nonzero;fill:rgb(28.627451%,38.039216%,43.137255%);fill-opacity:1;" d="M 3.125 10.625 L 5.625 10.625 L 5.625 8.125 L 3.125 8.125 Z M 6.875 10.625 L 9.375 10.625 L 9.375 8.125 L 6.875 8.125 Z M 10.625 8.125 L 10.625 10.625 L 13.125 10.625 L 13.125 8.125 Z M 3.125 14.375 L 5.625 14.375 L 5.625 11.875 L 3.125 11.875 Z M 6.875 14.375 L 9.375 14.375 L 9.375 11.875 L 6.875 11.875 Z M 10.625 14.375 L 13.125 14.375 L 13.125 11.875 L 10.625 11.875 Z M 3.125 18.125 L 5.625 18.125 L 5.625 15.625 L 3.125 15.625 Z M 6.875 18.125 L 9.375 18.125 L 9.375 15.625 L 6.875 15.625 Z M 10.625 18.125 L 13.125 18.125 L 13.125 15.625 L 10.625 15.625 Z M 10.625 18.125 "/>
<path style=" stroke:none;fill-rule:nonzero;fill:rgb(88.627451%,34.117647%,29.803922%);fill-opacity:1;" d="M 14.375 8.125 L 14.375 10.625 L 16.875 10.625 L 16.875 8.125 Z M 14.375 18.125 L 16.875 18.125 L 16.875 11.875 L 14.375 11.875 Z M 14.375 18.125 "/>
</g>
</svg>
